<?xml version="1.0" encoding="utf-8"?>
<!-- Generator: Adobe Illustrator 22.0.0, SVG Export Plug-In . SVG Version: 6.00 Build 0)  -->
<svg version="1.1" id="图层_1" xmlns="http://www.w3.org/2000/svg" xmlns:xlink="http://www.w3.org/1999/xlink" x="0px" y="0px"
	 viewBox="150 150 641.9 296.3" style="enable-background:new 0 0 841.9 296.3;" xml:space="preserve">
<style type="text/css">
	.st0{fill:#F6D048;}
	.st1{fill:#171C61;}
	.st2{fill:#FFFFFF;}
</style>
<g>
	<g>
		<polygon class="st0" points="279.3,204.5 489.3,204.5 536.9,156.9 536.9,99.9 326.9,99.9 279.3,147.5 		"/>
		<g>
			<g>
				<g>
					<path class="st1" d="M362.2,193.6c-19.1,0-38.1,0-57.2,0c0.6,0.6,1.1,1.1,1.7,1.7c0-11.5,0-22.9,0-34.4c0-6.5,0-13,0-19.5
						c0-0.6,0.2-1.6,0-2.2c-0.3-1,0.8-1.1-0.5,0.4c0.7-0.7,1.4-1.4,2.1-2.1c9.8-9.8,19.5-19.5,29.3-29.3c4.5-4.5,9-9,13.4-13.4
						c0.8-0.8,1.8-1.7,2.6-2.6c0.1-0.1-1.6,0-0.4,0.3c1.9,0.5,4.6,0,6.5,0c4,0,8,0,12.1,0c12.5,0,25.1,0,37.6,0c31.5,0,63,0,94.6,0
						c19.5,0,39.1,0,58.6,0c-0.6-0.6-1.1-1.1-1.7-1.7c0,18,0,36,0,54c0,0.9-0.1,1.8,0,2.7c0-0.4,1.1-1-0.1-0.3
						c-2.5,1.5-4.8,4.8-6.8,6.8c-8,8-16,16-24,24c-5.4,5.4-10.9,10.6-16.1,16.1c0,0,1.7-0.2,0.6-0.4c-0.6-0.1-1.4,0-2,0
						c-2.9,0-5.8,0-8.7,0c-21.5,0-43,0-64.5,0c-17,0-34,0-51,0c-0.9,0-1.7,0.8-1.7,1.7c0,8.8,0,17.6,0,26.4c0.6-0.6,1.1-1.1,1.7-1.7
						c-9.2,0-18.4,0-27.6,0c-2.2,0-2.2,3.4,0,3.4c9.2,0,18.4,0,27.6,0c0.9,0,1.7-0.8,1.7-1.7c0-8.8,0-17.6,0-26.4
						c-0.6,0.6-1.1,1.1-1.7,1.7c37.2,0,74.5,0,111.7,0c3.5,0,6.9,0,10.4,0c1.4,0,3.2,0.3,4.6,0c1.5-0.4,2.3-1.5,3.4-2.6
						c2.9-2.9,5.8-5.8,8.7-8.7c8.4-8.4,16.7-16.7,25.1-25.1c3.1-3.1,6.2-6.2,9.3-9.3c1.1-1.1,2.5-2.1,2.9-3.7c0.7-2.8,0-6.7,0-9.6
						c0-6.4,0-12.9,0-19.3c0-9.3,0-18.7,0-28c0-0.9-0.8-1.7-1.7-1.7c-48.3,0-96.7,0-145,0c-21.1,0-42.2-0.3-63.3,0
						c-5,0.1-9,6.5-12.3,9.9c-10.7,10.7-21.4,21.4-32.1,32.1c-2,2-6,4.6-6.7,7.5c-0.4,1.5,0,3.6,0,5.1c0,3.6,0,7.2,0,10.8
						c0,13.7,0,27.3,0,41c0,0.9,0.8,1.7,1.7,1.7c19.1,0,38.1,0,57.2,0C364.3,197,364.3,193.6,362.2,193.6L362.2,193.6z"/>
				</g>
			</g>
			<g>
				<g>
					<path class="st1" d="M506.9,182.3c13-12.4,25.9-24.9,38.9-37.3c1.2-1.2,2.6-2.1,3-3.7c0.5-2.1,0-5.1,0-7.2c0-11,0-21.9,0-32.9
						c0-8.5,0-16.9,0-25.4c0-0.9-0.8-1.7-1.7-1.7c-15.8,0-31.6,0-47.4,0c-2.2,0-2.2,3.4,0,3.4c15.8,0,31.6,0,47.4,0
						c-0.6-0.6-1.1-1.1-1.7-1.7c0,17.8,0,35.7,0,53.5c0,3.4-0.3,7,0,10.4c0.2,1.6-0.6,1.5,0.5,0.3c-0.5,0.5-1,1-1.5,1.4
						c-7,6.7-14,13.4-21,20.1c-6.3,6.1-12.6,12.1-18.9,18.2C502.9,181.4,505.3,183.8,506.9,182.3L506.9,182.3z"/>
				</g>
			</g>
			<g>
				<g>
					<path class="st1" d="M319.3,98.7c-9.9,9.9-19.8,19.8-29.7,29.7c-2.2,2.2-6.6,5.1-7.1,8.3c-0.4,2.4,0,5.3,0,7.7
						c0,4.4,0,8.7,0,13.1c0,7.1,0,14.2,0,21.3c0,0.9,0.8,1.7,1.7,1.7c18.5,0,37.1,0,55.6,0c2.2,0,2.2-3.4,0-3.4
						c-18.5,0-37.1,0-55.6,0c0.6,0.6,1.1,1.1,1.7,1.7c0-13.4,0-26.7,0-40.1c0-0.8,0-1.5,0-2.3c0-0.1-1.1,1.1-0.1,0.5
						c1.9-1.1,3.6-3.6,5.1-5.1c5.9-5.9,11.9-11.9,17.8-17.8c4.3-4.3,8.6-8.6,12.9-12.9C323.2,99.5,320.8,97.1,319.3,98.7L319.3,98.7
						z"/>
				</g>
			</g>
		</g>
	</g>
	<g>
		<g>
			<path class="st1" d="M395.7,168.1c-13.9,0-25.3-11.3-25.3-25.3c0-13.9,11.3-25.3,25.3-25.3c13.9,0,25.3,11.3,25.3,25.3
				C420.9,156.7,409.6,168.1,395.7,168.1z M395.7,129.8c-7.2,0-13,5.8-13,13s5.8,13,13,13s13-5.8,13-13S402.8,129.8,395.7,129.8z"/>
		</g>
		<g>
			<path class="st1" d="M498.5,168.1c-13.9,0-25.3-11.3-25.3-25.3c0-13.9,11.3-25.3,25.3-25.3c13.9,0,25.3,11.3,25.3,25.3
				C523.8,156.7,512.4,168.1,498.5,168.1z M498.5,129.8c-7.2,0-13,5.8-13,13s5.8,13,13,13s13-5.8,13-13S505.7,129.8,498.5,129.8z"/>
		</g>
		<g>
			<g>
				<path class="st1" d="M462,168.1c-3.4,0-6.1-2.7-6.1-6.1v-23.4l-4.5,4.5c-2.4,2.4-6.3,2.4-8.7,0l-15-15c-2.4-2.4-2.4-6.3,0-8.7
					c2.4-2.4,6.3-2.4,8.7,0l10.7,10.7l10.6-10.6c1.8-1.8,4.4-2.3,6.7-1.3c2.3,0.9,3.8,3.2,3.8,5.7V162
					C468.2,165.3,465.4,168.1,462,168.1z"/>
			</g>
			<g>
				<path class="st1" d="M432.1,168.1c-3.4,0-6.1-2.7-6.1-6.1v-15.1c0-3.4,2.7-6.1,6.1-6.1c3.4,0,6.1,2.7,6.1,6.1V162
					C438.2,165.3,435.5,168.1,432.1,168.1z"/>
			</g>
		</g>
		<path class="st1" d="M357.1,145c-1.1,6.4-6.8,11.2-13.6,10.9c-6.6-0.4-11.9-5.8-12.3-12.4c-0.4-7.5,5.6-13.7,13-13.7
			c3.6,0,6.8,1.5,9.2,3.8c0.8,0.8,2,1,3.1,0.6l6.3-2.4c1.9-0.7,2.6-3.1,1.3-4.6c-5.2-6.6-13.5-10.5-22.7-9.5
			c-11.9,1.3-21.4,10.9-22.4,22.8c-1.4,15.8,11.7,28.9,27.5,27.5c10.6-0.9,19.6-8.6,22.2-18.9c0.5-2.1,0.8-4.1,0.8-6
			c0-2.1-2.1-3.5-4.1-2.8l-6.4,2.4C358,143,357.3,143.9,357.1,145z"/>
	</g>
</g>
</svg>
